<svg xmlns="http://www.w3.org/2000/svg" viewBox="0 0 24 24" fill="currentColor">
  <!-- Composer conductor silhouette -->
  <!-- Head -->
  <circle cx="12" cy="4" r="2.5"/>
  <!-- Body + arms as single path for crisp rendering -->
  <path d="
    M10 7.5
    C9.5 7.5 7.5 9.5 7.5 12
    L7.5 15 L9.5 15 L9.5 12.5
    L14.5 12.5 L14.5 15 L16.5 15
    L16.5 12 C16.5 9.5 14.5 7.5 14 7.5
    Z
  "/>
  <!-- Left arm raised with baton -->
  <path d="M7.5 9.5 L4 6.5 L5 5.5 L8.5 9 Z"/>
  <line x1="4" y1="6.5" x2="2" y2="3.5" stroke="currentColor" stroke-width="0.9" stroke-linecap="round" fill="none"/>
  <!-- Right arm out -->
  <path d="M16.5 9.5 L20 7 L20.8 8.2 L16.8 10.5 Z"/>
  <!-- Legs -->
  <path d="M9.5 15 L8.5 22 L10.5 22 L12 17 L13.5 22 L15.5 22 L14.5 15 Z"/>
</svg>
